<mxfile>
    <diagram id="aGFRbgiP2rC6rnxIHRUh" name="Page-1">
        <mxGraphModel dx="894" dy="671" grid="1" gridSize="10" guides="1" tooltips="1" connect="1" arrows="1" fold="1" page="1" pageScale="1" pageWidth="827" pageHeight="1169" math="0" shadow="0">
            <root>
                <mxCell id="0"/>
                <mxCell id="1" parent="0"/>
                <mxCell id="4" value="Home" style="html=1;strokeColor=none;fillColor=#0079D6;labelPosition=center;verticalLabelPosition=middle;verticalAlign=top;align=center;fontSize=12;outlineConnect=0;spacingTop=-6;fontColor=#FFFFFF;shape=mxgraph.sitemap.home;" vertex="1" parent="1">
                    <mxGeometry x="360" y="90" width="120" height="70" as="geometry"/>
                </mxCell>
                <mxCell id="5" value="Chat" style="html=1;strokeColor=none;fillColor=#0079D6;labelPosition=center;verticalLabelPosition=middle;verticalAlign=top;align=center;fontSize=12;outlineConnect=0;spacingTop=-6;fontColor=#FFFFFF;shape=mxgraph.sitemap.chat;" vertex="1" parent="1">
                    <mxGeometry x="529" y="640" width="120" height="70" as="geometry"/>
                </mxCell>
                <mxCell id="6" value="Form" style="html=1;strokeColor=none;fillColor=#0079D6;labelPosition=center;verticalLabelPosition=middle;verticalAlign=top;align=center;fontSize=12;outlineConnect=0;spacingTop=-6;fontColor=#FFFFFF;shape=mxgraph.sitemap.form;" vertex="1" parent="1">
                    <mxGeometry x="30" y="230" width="120" height="70" as="geometry"/>
                </mxCell>
                <mxCell id="7" value="News" style="html=1;strokeColor=none;fillColor=#0079D6;labelPosition=center;verticalLabelPosition=middle;verticalAlign=top;align=center;fontSize=12;outlineConnect=0;spacingTop=-6;fontColor=#FFFFFF;shape=mxgraph.sitemap.news;" vertex="1" parent="1">
                    <mxGeometry x="540" y="230" width="120" height="70" as="geometry"/>
                </mxCell>
                <mxCell id="8" value="Search" style="html=1;strokeColor=none;fillColor=#0079D6;labelPosition=center;verticalLabelPosition=middle;verticalAlign=top;align=center;fontSize=12;outlineConnect=0;spacingTop=-6;fontColor=#FFFFFF;shape=mxgraph.sitemap.search;" vertex="1" parent="1">
                    <mxGeometry x="189" y="640" width="120" height="70" as="geometry"/>
                </mxCell>
                <mxCell id="9" value="Slideshow" style="html=1;strokeColor=none;fillColor=#0079D6;labelPosition=center;verticalLabelPosition=middle;verticalAlign=top;align=center;fontSize=12;outlineConnect=0;spacingTop=-6;fontColor=#FFFFFF;shape=mxgraph.sitemap.slideshow;" vertex="1" parent="1">
                    <mxGeometry x="700" y="230" width="120" height="70" as="geometry"/>
                </mxCell>
                <mxCell id="10" value="Blog" style="html=1;strokeColor=none;fillColor=#0079D6;labelPosition=center;verticalLabelPosition=middle;verticalAlign=top;align=center;fontSize=12;outlineConnect=0;spacingTop=-6;fontColor=#FFFFFF;shape=mxgraph.sitemap.blog;" vertex="1" parent="1">
                    <mxGeometry x="190" y="230" width="120" height="70" as="geometry"/>
                </mxCell>
                <mxCell id="12" value="Contact us" style="html=1;strokeColor=none;fillColor=#0079D6;labelPosition=center;verticalLabelPosition=middle;verticalAlign=top;align=center;fontSize=12;outlineConnect=0;spacingTop=-6;fontColor=#FFFFFF;shape=mxgraph.sitemap.contact_us;" vertex="1" parent="1">
                    <mxGeometry x="360" y="230" width="120" height="70" as="geometry"/>
                </mxCell>
                <mxCell id="13" value="Home" style="html=1;strokeColor=none;fillColor=#0079D6;labelPosition=center;verticalLabelPosition=middle;verticalAlign=top;align=center;fontSize=12;outlineConnect=0;spacingTop=-6;fontColor=#FFFFFF;shape=mxgraph.sitemap.home;" vertex="1" parent="1">
                    <mxGeometry x="353" y="510" width="120" height="70" as="geometry"/>
                </mxCell>
                <mxCell id="14" value="Slideshow" style="html=1;strokeColor=none;fillColor=#0079D6;labelPosition=center;verticalLabelPosition=middle;verticalAlign=top;align=center;fontSize=12;outlineConnect=0;spacingTop=-6;fontColor=#FFFFFF;shape=mxgraph.sitemap.slideshow;" vertex="1" parent="1">
                    <mxGeometry x="359" y="640" width="120" height="70" as="geometry"/>
                </mxCell>
                <mxCell id="15" value="Products" style="html=1;strokeColor=none;fillColor=#0079D6;labelPosition=center;verticalLabelPosition=middle;verticalAlign=top;align=center;fontSize=12;outlineConnect=0;spacingTop=-6;fontColor=#FFFFFF;shape=mxgraph.sitemap.products;" vertex="1" parent="1">
                    <mxGeometry x="679" y="640" width="120" height="70" as="geometry"/>
                </mxCell>
                <mxCell id="16" value="Shopping" style="html=1;strokeColor=none;fillColor=#0079D6;labelPosition=center;verticalLabelPosition=middle;verticalAlign=top;align=center;fontSize=12;outlineConnect=0;spacingTop=-6;fontColor=#FFFFFF;shape=mxgraph.sitemap.shopping;" vertex="1" parent="1">
                    <mxGeometry x="29" y="640" width="120" height="70" as="geometry"/>
                </mxCell>
            </root>
        </mxGraphModel>
    </diagram>
</mxfile>